<svg xmlns="http://www.w3.org/2000/svg" viewBox="0 0 326.03 132.38"><defs><style>.cls-1{fill:#fcfcfc;}.cls-2{fill:#231f20;}.cls-3{fill:#7efff4;}</style></defs><g id="Layer_2" data-name="Layer 2"><g id="Layer_1-2" data-name="Layer 1"><polygon class="cls-1" points="18.38 29.59 3.27 115.21 22.14 129.29 307.68 102.77 322.75 17.33 303.67 3.09 18.38 29.59"/><path class="cls-2" d="M21.27,132.38,0,116.51l15.82-89.7L304.54,0,326,16l-15.79,89.52Zm-18-17.17,18.86,14.08,285.54-26.52,15.07-85.44L303.67,3.09,18.38,29.59Z"/><polygon points="182.73 49.11 184.29 40.24 226.43 36.45 228.76 36.45 232.46 15.45 167.1 21.32 158.21 71.78 202.7 67.77 201.14 76.66 156.63 80.66 152.97 101.44 218.33 95.56 227.22 45.11 182.73 49.11"/><polygon points="300.03 29.55 303.69 8.76 238.35 14.65 229.44 65.11 273.95 61.1 272.39 69.97 227.88 73.99 224.22 94.77 289.56 88.89 298.47 38.44 253.98 42.44 255.54 33.56 300.03 29.55"/><path d="M81.07,79.24,90,28.79,24.61,34.68l-14.12,80.1,20.85-1.86,5.24-29.67,8.81-.8-5.24,29.68,35.7-3.21,3.66-20.79L64.68,89.46l1.56-8.88ZM65.45,51.46l-1.57,8.88L40.24,62.46l1.57-8.87Z"/><polygon points="140.36 23.99 129.89 83.33 106.25 85.45 116.72 26.12 98.22 27.79 95.89 27.98 81.74 108.11 147.08 102.23 161.21 22.12 140.36 23.99"/><polygon class="cls-3" points="161.18 22.12 161.17 22.12 161.17 22.12 161.18 22.12"/><polygon class="cls-3" points="116.45 27.62 106.25 85.45 119.87 84.23 128.56 34.96 128.56 34.96 128.56 34.96 128.56 34.95 128.56 34.95 116.72 26.12 116.45 27.62"/><polygon class="cls-3" points="40.24 62.46 63.88 60.34 65.44 51.46 41.81 53.59 40.24 62.46"/><polygon class="cls-3" points="315.54 17.6 303.69 8.76 300.03 29.55 255.54 33.56 253.98 42.44 298.47 38.44 297.24 45.4 296.69 48.5 296.69 48.5 289.56 88.89 237.84 93.55 237.84 93.56 232 94.08 232 94.07 224.22 94.77 227.88 73.99 272.39 69.97 273.95 61.1 229.44 65.11 237.54 19.24 232.46 15.45 228.76 36.45 226.43 36.45 184.29 40.24 182.73 49.11 227.22 45.11 218.33 95.56 166.59 100.22 166.59 100.22 160.75 100.75 160.75 100.74 152.97 101.44 156.63 80.66 164.41 79.96 164.41 79.96 164.41 79.96 170.26 79.43 170.26 79.43 201.14 76.66 202.7 67.77 158.21 71.78 166.28 25.93 161.21 22.15 147.08 102.23 95.36 106.89 95.35 106.89 89.52 107.42 89.52 107.41 81.74 108.11 95.07 32.6 89.96 28.79 81.07 79.24 66.24 80.58 64.68 89.46 79.51 88.13 75.85 108.92 53.77 110.9 53.77 110.91 44.96 111.7 44.96 111.7 40.15 112.13 45.39 82.45 36.58 83.25 31.34 112.92 24.11 113.56 24.11 113.56 10.49 114.78 22.33 123.62 43.19 121.75 51.96 120.94 51.99 120.96 51.99 120.97 87.69 117.75 87.72 117.61 131.64 113.52 158.93 111.07 158.94 110.98 216.75 105.6 230.18 104.39 230.19 104.35 301.41 97.73 310.31 47.28 313.18 30.99 313.18 30.99 315.54 17.6"/></g></g></svg>